<mxfile host="app.diagrams.net" modified="2023-07-06T15:03:52.406Z" agent="Mozilla/5.0 (X11; Linux x86_64) AppleWebKit/537.36 (KHTML, like Gecko) Chrome/103.0.0.0 Safari/537.36" version="21.6.1" etag="o9ORIN7Q3C-Zz-4ZCPnH" type="github">
  <diagram name="Page-1" id="ZTCplo4ghj9FBi1FLBnA">
    <mxGraphModel>
      <root>
        <mxCell id="0" />
        <mxCell id="1" parent="0" />
      </root>
    </mxGraphModel>
  </diagram>
</mxfile>
